<?xml version="1.0" encoding="UTF-8" standalone="no"?>
<!DOCTYPE svg PUBLIC "-//W3C//DTD SVG 1.1//EN" "http://www.w3.org/Graphics/SVG/1.1/DTD/svg11.dtd">
<svg version="1.1" xmlns="http://www.w3.org/2000/svg" xmlns:xlink="http://www.w3.org/1999/xlink" preserveAspectRatio="xMidYMid meet" viewBox="0 0 240 298" width="240" height="298"><defs><path d="M0 0L240 0L240 297.95L0 297.95L0 0" id="fycXMtQI2"></path><path d="M58.41 271.02L58.41 276.76L35.31 276.76L35.31 245.45L58.08 245.45L58.08 251.19L43.12 251.19L43.12 257.75L57.39 257.75L57.39 263.49L43.12 263.49L43.12 271.02L58.41 271.02" id="a9h31sN8"></path><path d="M114.16 274.1C110.24 276.18 106.14 277.22 101.86 277.22C96.29 277.22 91.87 275.68 88.57 272.6C85.28 269.51 83.63 265.72 83.63 261.21C83.63 256.69 85.37 252.87 88.84 249.71C92.32 246.57 96.85 244.99 102.45 244.99C106.92 244.99 110.7 245.91 113.79 247.75C113.79 248.44 113.79 254.03 113.79 254.72C110 252.58 106.4 251.51 103.01 251.51C99.68 251.51 96.95 252.41 94.84 254.2C92.72 255.99 91.67 258.28 91.67 261.06C91.67 263.85 92.71 266.15 94.79 267.98C96.88 269.79 99.55 270.7 102.81 270.7C104.43 270.7 105.98 270.49 107.47 270.07C108.97 269.64 111.2 268.7 114.16 267.26C114.16 268.63 114.16 273.41 114.16 274.1ZM151.45 249.84C154.74 253.07 156.4 256.83 156.4 261.11C156.4 265.47 154.72 269.24 151.38 272.43C148.03 275.62 143.73 277.22 138.49 277.22C133.19 277.22 128.87 275.63 125.54 272.45C122.21 269.27 120.54 265.5 120.54 261.11C120.54 256.81 122.19 253.05 125.51 249.83C128.81 246.61 133.14 244.99 138.49 244.99C143.83 244.99 148.14 246.61 151.45 249.84ZM145.65 268.05C147.46 266.29 148.36 263.97 148.36 261.11C148.36 258.22 147.46 255.9 145.65 254.14C143.84 252.39 141.45 251.51 138.49 251.51C135.52 251.51 133.12 252.39 131.3 254.14C129.49 255.9 128.58 258.22 128.58 261.11C128.58 263.97 129.49 266.29 131.3 268.05C133.12 269.82 135.52 270.7 138.49 270.7C141.45 270.7 143.84 269.82 145.65 268.05ZM163.61 245.45C171.98 245.45 176.64 245.45 177.57 245.45C180.6 245.45 183.06 246.33 184.96 248.08C186.85 249.84 187.8 251.97 187.8 254.46C187.8 257.92 186 260.48 182.41 262.14C184 262.83 185.49 264.75 186.91 267.88C188.33 271.02 189.7 273.98 191.01 276.76C190.16 276.76 183.33 276.76 182.47 276.76C181.96 275.73 181.07 273.76 179.79 270.87C178.52 267.97 177.42 266.1 176.53 265.28C175.63 264.46 174.67 264.04 173.64 264.04C173.49 264.04 172.75 264.04 171.41 264.04L171.41 276.76L163.61 276.76L163.61 245.45ZM171.41 251.19L171.41 258.31C173.87 258.31 175.24 258.31 175.51 258.31C176.82 258.31 177.85 258 178.62 257.38C179.38 256.76 179.77 255.87 179.77 254.72C179.77 252.37 178.29 251.19 175.33 251.19C174.81 251.19 173.5 251.19 171.41 251.19ZM196.47 245.45C204.85 245.45 209.51 245.45 210.44 245.45C213.61 245.45 216.13 246.37 218 248.21C219.87 250.04 220.8 252.21 220.8 254.72C220.8 257.33 219.87 259.55 218.03 261.4C216.19 263.26 213.67 264.18 210.49 264.18C210.07 264.18 208 264.18 204.27 264.18L204.27 276.76L196.47 276.76L196.47 245.45ZM204.27 251.19L204.27 258.44C206.45 258.44 207.66 258.44 207.9 258.44C211.14 258.44 212.77 257.23 212.77 254.82C212.77 253.45 212.33 252.51 211.47 251.99C210.6 251.46 209.12 251.19 207.03 251.19C206.84 251.19 205.93 251.19 204.27 251.19" id="cMfUsNUNz"></path><path d="M81.66 96.4L139.5 49.74L116.1 20.73L19.2 98.9L112.88 215.03L209.67 136.96L186.14 107.8L128.41 154.37L116.75 139.91L170.11 96.87L146.3 67.34L92.94 110.39L81.66 96.4" id="dfJX4yzXP"></path></defs><g><g><g><use xlink:href="#fycXMtQI2" opacity="1" fill="#000000" fill-opacity="1"></use><g><use xlink:href="#fycXMtQI2" opacity="1" fill-opacity="0" stroke="#000000" stroke-width="1" stroke-opacity="0"></use></g></g><g><use xlink:href="#a9h31sN8" opacity="1" fill="#ffffff" fill-opacity="1"></use><g><use xlink:href="#a9h31sN8" opacity="1" fill-opacity="0" stroke="#000000" stroke-width="1" stroke-opacity="0"></use></g></g><g><use xlink:href="#cMfUsNUNz" opacity="1" fill="#ffffff" fill-opacity="1"></use><g><use xlink:href="#cMfUsNUNz" opacity="1" fill-opacity="0" stroke="#000000" stroke-width="1" stroke-opacity="0"></use></g></g><g><use xlink:href="#dfJX4yzXP" opacity="1" fill="#ffffff" fill-opacity="1"></use><g><use xlink:href="#dfJX4yzXP" opacity="1" fill-opacity="0" stroke="#000000" stroke-width="1" stroke-opacity="0"></use></g></g></g></g></svg>