<?xml version="1.0" encoding="UTF-8" standalone="no"?>
<!DOCTYPE svg PUBLIC "-//W3C//DTD SVG 1.1//EN" "http://www.w3.org/Graphics/SVG/1.1/DTD/svg11.dtd">
<svg version="1.1" xmlns="http://www.w3.org/2000/svg" xmlns:xlink="http://www.w3.org/1999/xlink" preserveAspectRatio="xMidYMid meet" viewBox="0 0 240 236" width="240" height="236"><defs><path d="M0 0L240 0L240 236.04L0 236.04L0 0" id="d4aShXBkB4"></path><path d="M93.86 77.66L138.57 41.59L120.48 19.17L45.58 79.59L117.99 169.36L192.8 109.01L174.62 86.47L130 122.46L120.98 111.29L162.23 78.02L143.82 55.2L102.58 88.47L93.86 77.66" id="f2ljNaxVtu"></path><path d="M138.45 214.43C135.39 216.06 132.19 216.87 128.84 216.87C124.5 216.87 121.04 215.67 118.47 213.26C115.89 210.85 114.61 207.89 114.61 204.37C114.61 200.84 115.96 197.85 118.68 195.39C121.39 192.93 124.93 191.7 129.31 191.7C132.8 191.7 135.75 192.42 138.16 193.85C138.16 194.4 138.16 198.76 138.16 199.3C135.2 197.63 132.39 196.79 129.74 196.79C127.14 196.79 125.01 197.49 123.36 198.9C121.71 200.3 120.88 202.08 120.88 204.25C120.88 206.43 121.69 208.23 123.32 209.65C124.95 211.07 127.04 211.78 129.59 211.78C130.85 211.78 132.06 211.61 133.23 211.29C134.4 210.95 136.14 210.22 138.45 209.09C138.45 210.16 138.45 213.9 138.45 214.43ZM167.26 195.49C169.83 198.01 171.12 200.95 171.12 204.29C171.12 207.69 169.81 210.64 167.2 213.13C164.59 215.62 161.23 216.87 157.14 216.87C153 216.87 149.63 215.63 147.02 213.15C144.43 210.66 143.12 207.72 143.12 204.29C143.12 200.93 144.41 198 147 195.48C149.58 192.96 152.96 191.7 157.14 191.7C161.31 191.7 164.68 192.96 167.26 195.49ZM162.73 209.71C164.14 208.34 164.85 206.53 164.85 204.29C164.85 202.03 164.14 200.22 162.73 198.85C161.32 197.48 159.45 196.79 157.14 196.79C154.82 196.79 152.95 197.48 151.52 198.85C150.11 200.22 149.4 202.03 149.4 204.29C149.4 206.53 150.11 208.34 151.52 209.71C152.95 211.09 154.82 211.78 157.14 211.78C159.45 211.78 161.32 211.09 162.73 209.71ZM176.44 192.06C182.99 192.06 186.62 192.06 187.35 192.06C189.71 192.06 191.64 192.75 193.12 194.12C194.6 195.49 195.34 197.15 195.34 199.1C195.34 201.8 193.93 203.8 191.13 205.09C192.37 205.64 193.54 207.14 194.65 209.58C195.75 212.03 196.82 214.35 197.85 216.51C197.18 216.51 191.85 216.51 191.18 216.51C190.78 215.71 190.08 214.17 189.08 211.91C188.09 209.65 187.23 208.19 186.54 207.55C185.83 206.91 185.08 206.58 184.28 206.58C184.16 206.58 183.58 206.58 182.54 206.58L182.54 216.51L176.44 216.51L176.44 192.06ZM182.54 196.54L182.54 202.1C184.46 202.1 185.53 202.1 185.74 202.1C186.76 202.1 187.57 201.86 188.17 201.38C188.76 200.89 189.06 200.2 189.06 199.3C189.06 197.46 187.91 196.54 185.6 196.54C185.19 196.54 184.17 196.54 182.54 196.54ZM201.8 192.06C208.34 192.06 211.98 192.06 212.71 192.06C215.18 192.06 217.15 192.78 218.61 194.21C220.07 195.65 220.8 197.34 220.8 199.3C220.8 201.34 220.08 203.07 218.64 204.52C217.2 205.97 215.23 206.69 212.75 206.69C212.42 206.69 210.8 206.69 207.89 206.69L207.89 216.51L201.8 216.51L201.8 192.06ZM207.89 196.54L207.89 202.21C209.59 202.21 210.54 202.21 210.73 202.21C213.26 202.21 214.53 201.26 214.53 199.38C214.53 198.31 214.19 197.58 213.51 197.17C212.83 196.75 211.68 196.54 210.04 196.54C209.9 196.54 209.18 196.54 207.89 196.54" id="bewbAU62p"></path><path d="M37.23 212.03L37.23 216.51L19.2 216.51L19.2 192.06L36.98 192.06L36.98 196.54L25.3 196.54L25.3 201.67L36.45 201.67L36.45 206.15L25.3 206.15L25.3 212.03L37.23 212.03ZM65.86 192.06L54.56 216.87L51.92 216.87L40.06 192.06L46.7 192.06L53.18 206.03L59.3 192.06L65.86 192.06ZM75.77 192.06L75.77 216.51L69.67 216.51L69.67 192.06L75.77 192.06ZM100.95 212.03L100.95 216.51L82.31 216.51L82.31 192.06L88.4 192.06L88.4 212.03L100.95 212.03" id="b2qqVJwxX"></path></defs><g><g><g><use xlink:href="#d4aShXBkB4" opacity="1" fill="#000000" fill-opacity="1"></use><g><use xlink:href="#d4aShXBkB4" opacity="1" fill-opacity="0" stroke="#000000" stroke-width="1" stroke-opacity="0"></use></g></g><g><use xlink:href="#f2ljNaxVtu" opacity="1" fill="#ffffff" fill-opacity="1"></use><g><use xlink:href="#f2ljNaxVtu" opacity="1" fill-opacity="0" stroke="#000000" stroke-width="1" stroke-opacity="0"></use></g></g><g><use xlink:href="#bewbAU62p" opacity="1" fill="#ffffff" fill-opacity="1"></use><g><use xlink:href="#bewbAU62p" opacity="1" fill-opacity="0" stroke="#000000" stroke-width="1" stroke-opacity="0"></use></g></g><g><use xlink:href="#b2qqVJwxX" opacity="1" fill="#ffffff" fill-opacity="1"></use><g><use xlink:href="#b2qqVJwxX" opacity="1" fill-opacity="0" stroke="#000000" stroke-width="1" stroke-opacity="0"></use></g></g></g></g></svg>